<svg width="120" height="120" viewBox="0 0 120 120" fill="none" xmlns="http://www.w3.org/2000/svg">
<rect width="120" height="120" rx="30" fill="url(#paint0_linear_8_1518)"/>
<path d="M40.179 94.4C42.6332 94.4 44.7805 93.1884 45.9309 91.2846L43.285 89.7461C42.7098 90.7846 41.5403 91.4 40.179 91.4C37.8015 91.4 36.2677 89.8038 36.2677 87.4C36.2677 84.9961 37.8015 83.4 40.179 83.4C41.5403 83.4 42.6907 84.0153 43.285 85.0538L45.9309 83.5153C44.7614 81.6115 42.614 80.4 40.179 80.4C36.1334 80.4 33.2 83.4384 33.2 87.4C33.2 91.3615 36.1334 94.4 40.179 94.4Z" fill="white"/>
<path d="M50.4363 91.1692V80.6692H47.3686V94.1307H55.2296V91.1692H50.4363Z" fill="white"/>
<path d="M56.5807 80.6692V94.1307H59.6484V80.6692H56.5807Z" fill="white"/>
<path d="M68.3583 94.4C70.8125 94.4 72.9599 93.1884 74.1102 91.2846L71.4644 89.7461C70.8892 90.7846 69.7196 91.4 68.3583 91.4C65.9808 91.4 64.447 89.8038 64.447 87.4C64.447 84.9961 65.9808 83.4 68.3583 83.4C69.7196 83.4 70.87 84.0153 71.4644 85.0538L74.1102 83.5153C72.9407 81.6115 70.7933 80.4 68.3583 80.4C64.3128 80.4 61.3793 83.4384 61.3793 87.4C61.3793 91.3615 64.3128 94.4 68.3583 94.4Z" fill="white"/>
<path d="M86.4 94.1307L81.6833 87.2269L86.2082 80.6692H82.7187L78.6156 86.5153V80.6692H75.5479V94.1307H78.6156V87.9L82.9104 94.1307H86.4Z" fill="white"/>
<path fill-rule="evenodd" clip-rule="evenodd" d="M81.4679 44.8297L61.4923 26.3802C60.375 25.3399 58.6303 25.3399 57.5129 26.3802L37.5374 44.8297V69.4029C37.5374 71.0319 38.8508 72.3469 40.4778 72.3469H53.9844H55.4938L57.387 72.3436C57.3084 72.2793 57.2278 72.2119 57.145 72.1427C56.9393 71.9707 56.7202 71.7875 56.4844 71.6114C55.6857 71.0147 54.068 69.644 52.257 66.8459C50.8349 64.6353 49.3558 61.3782 49.3181 61.2648C48.9121 60.3633 49.3463 59.2795 50.2478 58.8735C51.1493 58.4674 52.2331 58.9016 52.6391 59.8031C52.6524 59.8068 52.7893 60.0925 52.9902 60.5116C53.2737 61.103 53.6845 61.9601 54.0547 62.6648C54.1795 62.8365 54.4383 62.7699 54.4589 62.5693L55.0256 48.3267C55.0644 47.3065 55.9343 46.5138 56.9545 46.5526C57.9748 46.5914 58.7674 47.4614 58.7286 48.4816L58.4264 56.3123C58.4849 55.2474 59.4923 54.4274 60.5856 54.6255C61.5069 54.7747 62.163 55.6416 62.1097 56.5891L62.0697 57.4112C62.1484 56.3636 63.1455 55.564 64.2267 55.7599C65.148 55.9091 65.804 56.776 65.7507 57.7235L65.7108 58.5456C65.7894 57.4981 66.7866 56.6984 67.8677 56.8943C68.789 57.0435 69.4451 57.9104 69.383 58.8899L69.2342 62.3197C69.0945 65.3397 68.0975 68.2281 66.3569 70.5692L65.4371 71.7949C65.3914 71.8563 65.3387 71.9283 65.2801 72.0084C65.2092 72.1053 65.1297 72.2141 65.0433 72.3302L66.6872 72.3273H68.1966H78.6451C80.2721 72.3273 81.5855 71.0123 81.5855 69.3832L81.4679 44.8297Z" fill="white"/>
<defs>
<linearGradient id="paint0_linear_8_1518" x1="125.273" y1="-13.1836" x2="31.582" y2="94.9219" gradientUnits="userSpaceOnUse">
<stop stop-color="#6460C0"/>
<stop offset="1" stop-color="#1A0546"/>
</linearGradient>
</defs>
</svg>
