<svg width="120" height="120" viewBox="0 0 120 120" fill="none" xmlns="http://www.w3.org/2000/svg">
<rect x="0.5" y="0.5" width="119" height="119" rx="29.5" fill="white"/>
<path d="M20.2893 95.8434C18.8061 95.8434 17.5611 95.5305 16.5542 94.9045C15.5609 94.2786 14.8601 93.4078 14.4519 92.292L17.5747 90.4755C18.1054 91.7409 19.0442 92.3737 20.3913 92.3737C21.5071 92.3737 22.065 92.0539 22.065 91.4144C22.065 91.0062 21.7452 90.666 21.1057 90.3938C20.888 90.3122 20.2893 90.1285 19.3096 89.8428C17.9217 89.4482 16.8671 88.8971 16.146 88.1895C15.4248 87.482 15.0642 86.5431 15.0642 85.3729C15.0642 84.053 15.5337 82.9849 16.4725 82.1685C17.4386 81.3521 18.6224 80.9438 20.0239 80.9438C21.2213 80.9438 22.2827 81.2296 23.208 81.8011C24.1332 82.359 24.8408 83.1618 25.3306 84.2095L22.2691 86.0056C21.82 84.9443 21.0785 84.4136 20.0443 84.4136C19.6225 84.4136 19.296 84.5021 19.0646 84.6789C18.8333 84.8422 18.7177 85.0667 18.7177 85.3525C18.7177 85.6654 18.881 85.9308 19.2075 86.1485C19.5477 86.3662 20.2008 86.6179 21.1669 86.9037C21.8881 87.1214 22.446 87.3119 22.8406 87.4752C23.2896 87.6657 23.7522 87.9242 24.2285 88.2508C25.2218 88.9039 25.7184 89.9448 25.7184 91.3735C25.7184 92.7751 25.2218 93.8704 24.2285 94.6596C23.2352 95.4488 21.9221 95.8434 20.2893 95.8434Z" fill="#205CB5"/>
<path d="M36.1497 86.5363V81.25H39.7828V95.5373H36.1497V90.0469H32.1289V95.5373H28.4754V81.25H32.1289V86.5363H36.1497Z" fill="#205CB5"/>
<path d="M47.1313 90.0061V92.1083H52.6625V95.5373H43.4778V81.25H52.5605V84.6585H47.1313V86.6383H52.0502V90.0061H47.1313Z" fill="#205CB5"/>
<path d="M59.4828 81.25V92.0063H64.4017V95.5373H55.8293V81.25H59.4828Z" fill="#205CB5"/>
<path d="M64.8107 81.25H75.5261V84.781H71.9951V95.5373H68.3417V84.781H64.8107V81.25Z" fill="#205CB5"/>
<path d="M81.9334 90.0061V92.1083H87.4646V95.5373H78.2799V81.25H87.3625V84.6585H81.9334V86.6383H86.8523V90.0061H81.9334Z" fill="#205CB5"/>
<path d="M102 95.5373H98.0811L95.5911 90.9245H94.2848V95.5373H90.6314V81.25H96.3463C97.8022 81.25 99.02 81.7194 99.9997 82.6583C100.993 83.57 101.49 84.747 101.49 86.1893C101.49 87.0329 101.272 87.8153 100.837 88.5365C100.401 89.2577 99.8092 89.8292 99.0608 90.251L102 95.5373ZM96.3054 84.6177H94.2848V87.8221H96.3054C96.7545 87.8357 97.1219 87.6929 97.4076 87.3935C97.6934 87.0942 97.8362 86.7064 97.8362 86.2301C97.8362 85.7539 97.6934 85.3661 97.4076 85.0667C97.1219 84.7674 96.7545 84.6177 96.3054 84.6177Z" fill="#205CB5"/>
<path fill-rule="evenodd" clip-rule="evenodd" d="M85.6425 37.8134L61.1045 15.15C59.7319 13.8722 57.5887 13.8722 56.2161 15.15L31.6781 37.8134V67.9992C31.6781 70.0003 33.2915 71.6157 35.2902 71.6157H51.8816H53.7358L53.9665 71.6153C48.7746 67.6105 41.3876 60.5842 41.3876 53.0234C41.3876 47.643 45.7218 43.2341 51.1769 43.2341C54.3155 43.2341 57.1552 44.7286 58.9486 47.1199C60.6674 44.8034 63.507 43.2341 66.7203 43.2341C72.1754 43.2341 76.5097 47.643 76.5097 53.0234C76.5097 60.5732 69.1442 67.5901 63.9534 71.5978L67.4858 71.5916H69.34H82.1749C84.1736 71.5916 85.787 69.9762 85.787 67.9751L85.6425 37.8134Z" fill="#F9D648"/>
<mask id="mask0_8_1527" style="mask-type:alpha" maskUnits="userSpaceOnUse" x="31" y="14" width="55" height="58">
<path fill-rule="evenodd" clip-rule="evenodd" d="M85.797 37.8134L61.259 15.15C59.8864 13.8722 57.7432 13.8722 56.3707 15.15L31.8326 37.8134V67.9992C31.8326 70.0003 33.446 71.6157 35.4447 71.6157H52.0362H53.8904L54.1211 71.6153C48.9292 67.6105 41.5422 60.5842 41.5422 53.0234C41.5422 47.643 45.8764 43.2341 51.3315 43.2341C54.4701 43.2341 57.3097 44.7286 59.1032 47.1199C60.822 44.8034 63.6616 43.2341 66.8749 43.2341C72.33 43.2341 76.6642 47.643 76.6642 53.0234C76.6642 60.5732 69.2988 67.5901 64.108 71.5978L67.6403 71.5916H69.4945H82.3294C84.3281 71.5916 85.9415 69.9762 85.9415 67.9751L85.797 37.8134Z" fill="#F9D648"/>
</mask>
<g mask="url(#mask0_8_1527)">
<rect x="91.7786" y="11.7349" width="40.7829" height="77.635" transform="rotate(90 91.7786 11.7349)" fill="#205CB5"/>
</g>
<rect x="0.5" y="0.5" width="119" height="119" rx="29.5" stroke="#D2D2D2"/>
</svg>
