<svg viewBox="0 0 24 24"  xmlns="http://www.w3.org/2000/svg" style="display:none">

	<symbol viewBox="0 0 21 19" id="pointer">
		<path d="M13.1775 14.6796C13.3109 13.9194 12.7247 13.2239 11.979 13.2113L12.6038 13.2383C13.2505 13.2711 13.8395 12.8203 13.9379 12.1911C14.0713 11.431 13.4852 10.7355 12.7394 10.7229L13.3642 10.7499C14.0109 10.7827 14.5999 10.3319 14.6983 9.70273C14.8317 8.94254 14.2456 8.24704 13.4998 8.2345L18.8832 8.41282C19.5794 8.4355 20.17 7.89144 20.1927 7.19521C20.2153 6.49898 19.6713 5.90841 18.9751 5.88573L9.25556 5.55218C9.11866 5.53891 9.07226 5.36261 9.18889 5.27681C10.008 4.84081 11.1302 4.32214 11.1361 4.3003C11.7496 4.01991 12.0418 3.27885 11.7615 2.66529C11.4811 2.05172 10.74 1.75952 10.1264 2.0399C10.0492 2.06603 7.8325 3.08737 6.32957 4.06586C4.42722 5.31189 3.49804 6.42071 3.09391 6.96791C2.68977 7.5151 1.29677 8.27126 1.26865 8.63829C1.26238 9.01117 1.28331 11.3203 1.28331 11.3203C1.2739 11.8796 2.55242 12.7456 3.00211 13.0768L3.84182 13.6998C5.44558 14.8786 7.41993 15.5481 9.48092 15.6321L11.8216 15.7209C12.4901 15.7595 13.0791 15.3087 13.1775 14.6796Z"/>
	</symbol>

	<symbol viewBox="0 0 10 6" id="select-arrow">
		<path fill-rule="evenodd" clip-rule="evenodd" d="M8.81345 0.423822C9.13166 0.688995 9.17465 1.16192 8.90948 1.48013L5.57614 5.48013C5.43365 5.65112 5.22256 5.74999 4.99998 5.74999C4.77739 5.74999 4.56631 5.65112 4.42381 5.48013L1.09048 1.48013C0.825306 1.16192 0.868299 0.688995 1.18651 0.423822C1.50471 0.158649 1.97764 0.201642 2.24281 0.51985L4.99998 3.82845L7.75714 0.51985C8.02232 0.201642 8.49524 0.158649 8.81345 0.423822Z"/>
	</symbol>

	<symbol viewBox="0 0 8 6" id="check">
		<path fill-rule="evenodd" clip-rule="evenodd" d="M6.86362 0.803013C7.15652 1.09591 7.15652 1.57078 6.86362 1.86367L3.53029 5.19701C3.38964 5.33766 3.19887 5.41668 2.99996 5.41668C2.80105 5.41668 2.61028 5.33766 2.46963 5.19701L1.1363 3.86367C0.843403 3.57078 0.843403 3.09591 1.1363 2.80301C1.42919 2.51012 1.90406 2.51012 2.19696 2.80301L2.99996 3.60602L5.80296 0.803013C6.09586 0.51012 6.57073 0.51012 6.86362 0.803013Z"/>
	</symbol>
		
</svg>