<svg width="120" height="120" viewBox="0 0 120 120" fill="none" xmlns="http://www.w3.org/2000/svg">
<rect width="120" height="120" rx="30" fill="#E25E5B"/>
<circle cx="59.5" cy="59.5" r="37.5" fill="white"/>
<path d="M55.0422 52.7112C52.8063 52.7112 50.9939 54.5236 50.9939 56.7595C50.9939 58.9954 52.8063 60.8078 55.0422 60.8078C57.2781 60.8078 59.0905 58.9954 59.0905 56.7595C59.0905 54.5236 57.2781 52.7112 55.0422 52.7112ZM56.4924 59.0669C56.3389 59.07 56.1863 59.0424 56.0435 58.9858C55.9008 58.9292 55.7708 58.8447 55.6611 58.7372C55.5515 58.6297 55.4644 58.5014 55.4049 58.3598C55.3454 58.2183 55.3148 58.0663 55.3149 57.9127C55.3149 57.7591 55.3456 57.6071 55.4051 57.4656C55.4646 57.324 55.5518 57.1958 55.6615 57.0883C55.7712 56.9809 55.9012 56.8964 56.044 56.8399C56.1868 56.7833 56.3394 56.7558 56.4929 56.759C56.7948 56.7652 57.0823 56.8896 57.2936 57.1054C57.505 57.3211 57.6233 57.6112 57.6232 57.9132C57.6232 58.2152 57.5047 58.5052 57.2933 58.7208C57.0819 58.9365 56.7944 59.0608 56.4924 59.0669ZM64.1428 52.7112C61.9069 52.7112 60.0945 54.5236 60.0945 56.7595C60.0945 58.9954 61.9069 60.8078 64.1428 60.8078C66.3787 60.8078 68.1911 58.9954 68.1911 56.7595C68.1911 54.5236 66.3787 52.7112 64.1428 52.7112ZM62.9891 59.0669C62.8356 59.07 62.683 59.0424 62.5403 58.9858C62.3975 58.9292 62.2675 58.8447 62.1578 58.7372C62.0482 58.6297 61.9611 58.5014 61.9016 58.3598C61.8422 58.2183 61.8115 58.0663 61.8116 57.9127C61.8116 57.7591 61.8423 57.6071 61.9018 57.4656C61.9613 57.324 62.0485 57.1958 62.1582 57.0883C62.2679 56.9809 62.3979 56.8964 62.5407 56.8399C62.6835 56.7833 62.8361 56.7558 62.9896 56.759C63.2916 56.7652 63.579 56.8896 63.7904 57.1054C64.0017 57.3211 64.12 57.6112 64.1199 57.9132C64.1199 58.2152 64.0014 58.5052 63.79 58.7208C63.5786 58.9365 63.2911 59.0608 62.9891 59.0669Z" fill="#3F3C98"/>
<path d="M78.4237 58.7942C78.4258 56.1417 77.8648 53.5189 76.7779 51.0993L78.0489 43.602C78.0698 43.4787 78.0579 43.3521 78.0143 43.2349C77.9708 43.1177 77.8971 43.0141 77.8008 42.9343C77.7045 42.8546 77.5889 42.8016 77.4656 42.7808C77.3423 42.7599 77.2157 42.7718 77.0985 42.8153L72.0569 44.6881C68.7378 41.7549 64.3784 39.9714 59.6009 39.9714C54.8905 39.9714 50.5877 41.7056 47.2865 44.5654L42.5751 42.8153C42.4579 42.7718 42.3313 42.7599 42.2081 42.7808C42.0848 42.8016 41.9692 42.8546 41.8729 42.9343C41.7765 43.0141 41.7029 43.1177 41.6594 43.2349C41.6158 43.3521 41.6039 43.4787 41.6248 43.602L42.7712 50.3658C41.4577 52.9811 40.775 55.8676 40.7777 58.7942C40.7777 65.5072 44.2943 71.395 49.5833 74.7271C50.0874 75.2791 50.7191 75.7934 51.4753 76.2556C51.6468 76.3603 51.8298 76.4555 52.0104 76.553C50.6645 76.7182 49.6697 77.2943 49.6697 77.9815C49.6697 78.7976 51.0707 79.4587 52.7985 79.4587C54.5264 79.4587 55.9274 78.7971 55.9274 77.9815C55.9274 77.9709 55.9245 77.9612 55.924 77.9506C57.1953 78.2177 58.4911 78.3511 59.7902 78.3485C60.7802 78.3485 61.748 78.2693 62.6776 78.1225C62.8283 78.872 64.164 79.4587 65.791 79.4587C67.5189 79.4587 68.9198 78.7971 68.9198 77.9815C68.9198 77.4039 68.2167 76.9051 67.1939 76.6622C67.2006 76.6583 67.2084 76.6554 67.2156 76.6515C68.2408 76.0938 69.0574 75.4356 69.649 74.7078C74.9206 71.3723 78.4237 65.4942 78.4237 58.7942ZM66.6931 75.6915C64.717 76.7665 62.0991 77.3242 59.3252 77.2494C56.5498 77.1799 53.9643 76.4956 52.0452 75.323C51.1788 74.7938 50.5042 74.1964 50.0358 73.5604C50.396 69.9617 54.539 67.1226 59.6004 67.1226C64.6368 67.1226 68.7643 69.9337 69.1598 73.5073C68.6701 74.3229 67.8347 75.0705 66.6931 75.6915ZM65.1241 63.2259C63.6512 63.2259 62.2966 62.7314 61.211 61.9008L59.6502 64.4776L58.057 61.8472C56.9237 62.7412 55.5218 63.2268 54.0783 63.2254C50.5071 63.2254 47.612 60.3303 47.612 56.7591C47.612 53.188 50.5071 50.2929 54.0783 50.2929C56.4214 50.2929 58.467 51.5431 59.6014 53.4091C60.7358 51.5436 62.7814 50.2929 65.1246 50.2929C68.6957 50.2929 71.5908 53.188 71.5908 56.7591C71.5908 60.3303 68.6953 63.2259 65.1241 63.2259Z" fill="url(#paint0_linear_304_13)"/>
<path d="M56.5397 70.3204C56.5397 70.234 56.4354 70.1548 56.2273 70.1548C56.123 70.1548 56.0336 70.1823 55.9742 70.2794L55.2841 71.4302L54.5941 70.2794C54.5347 70.1828 54.4453 70.1548 54.341 70.1548C54.1324 70.1548 54.0281 70.2345 54.0281 70.3204C54.0281 70.3518 54.0329 70.3929 54.1024 70.4933L55.0007 71.858C55.0451 71.9305 55.1296 71.986 55.2837 71.986C55.4377 71.986 55.5217 71.931 55.5667 71.858L56.4702 70.4933C56.5344 70.3929 56.5397 70.3513 56.5397 70.3204ZM60.9502 70.3204C60.9502 70.234 60.8459 70.1548 60.6378 70.1548C60.5335 70.1548 60.4441 70.1823 60.3847 70.2794L59.6946 71.4302L59.0046 70.2794C58.9452 70.1828 58.8558 70.1548 58.7515 70.1548C58.5429 70.1548 58.4386 70.2345 58.4386 70.3204C58.4386 70.3518 58.4434 70.3929 58.5129 70.4933L59.4112 71.858C59.4556 71.9305 59.5401 71.986 59.6942 71.986C59.8482 71.986 59.9322 71.931 59.9772 71.858L60.8807 70.4933C60.9449 70.3929 60.9502 70.3513 60.9502 70.3204ZM65.3231 70.1543C65.2188 70.1543 65.1294 70.1818 65.07 70.2789L64.3799 71.4297L63.6898 70.2789C63.6304 70.1823 63.5411 70.1543 63.4368 70.1543C63.2282 70.1543 63.1239 70.234 63.1239 70.3199C63.1239 70.3513 63.1287 70.3924 63.1982 70.4928L64.0965 71.8576C64.1409 71.93 64.2254 71.9855 64.3794 71.9855C64.5335 71.9855 64.6175 71.9305 64.6624 71.8576L65.566 70.4928C65.6307 70.3929 65.6355 70.3513 65.6355 70.3199C65.6355 70.234 65.5312 70.1543 65.3231 70.1543ZM58.2947 73.2117C58.1904 73.2117 58.101 73.2392 58.0416 73.3363L57.3515 74.487L56.6614 73.3363C56.602 73.2397 56.5127 73.2117 56.4084 73.2117C56.1998 73.2117 56.0955 73.2913 56.0955 73.3778C56.0955 73.4092 56.1003 73.4502 56.1698 73.5507L57.068 74.9159C57.1125 74.9883 57.197 75.0439 57.351 75.0439C57.5051 75.0439 57.5891 74.9888 57.634 74.9159L58.5376 73.5507C58.6023 73.4507 58.6071 73.4092 58.6071 73.3778C58.6071 73.2913 58.5028 73.2117 58.2947 73.2117ZM62.9804 73.2117C62.8761 73.2117 62.7868 73.2392 62.7274 73.3363L62.0373 74.487L61.3472 73.3363C61.2878 73.2397 61.1985 73.2117 61.0941 73.2117C60.8855 73.2117 60.7812 73.2913 60.7812 73.3778C60.7812 73.4092 60.786 73.4502 60.8556 73.5507L61.7538 74.9159C61.7982 74.9883 61.8828 75.0439 62.0368 75.0439C62.1909 75.0439 62.2749 74.9888 62.3198 74.9159L63.2233 73.5507C63.288 73.4507 63.2929 73.4092 63.2929 73.3778C63.2929 73.2913 63.1886 73.2117 62.9804 73.2117Z" fill="#3F3C98" stroke="#3F3C98"/>
<defs>
<linearGradient id="paint0_linear_304_13" x1="59.6509" y1="41.5762" x2="48.2123" y2="69.5837" gradientUnits="userSpaceOnUse">
<stop stop-color="#6460C0"/>
<stop offset="1" stop-color="#1A0546"/>
</linearGradient>
</defs>
</svg>
